<?xml version="1.0" encoding="UTF-8" standalone="no"?>
<!-- Uploaded to: SVG Repo, www.svgrepo.com, Generator: SVG Repo Mixer Tools -->

<svg
   width="800px"
   height="800px"
   viewBox="0 0 16 16"
   fill="none"
   version="1.1"
   id="svg4"
   sodipodi:docname="homelocation.svg"
   inkscape:version="1.2.2 (b0a8486541, 2022-12-01)"
   xmlns:inkscape="http://www.inkscape.org/namespaces/inkscape"
   xmlns:sodipodi="http://sodipodi.sourceforge.net/DTD/sodipodi-0.dtd"
   xmlns="http://www.w3.org/2000/svg"
   xmlns:svg="http://www.w3.org/2000/svg">
  <defs
     id="defs8" />
  <sodipodi:namedview
     id="namedview6"
     pagecolor="#ffffff"
     bordercolor="#666666"
     borderopacity="1.0"
     inkscape:showpageshadow="2"
     inkscape:pageopacity="0.0"
     inkscape:pagecheckerboard="0"
     inkscape:deskcolor="#d1d1d1"
     showgrid="false"
     inkscape:zoom="0.295"
     inkscape:cx="349.15254"
     inkscape:cy="411.86441"
     inkscape:window-width="2560"
     inkscape:window-height="1381"
     inkscape:window-x="0"
     inkscape:window-y="27"
     inkscape:window-maximized="1"
     inkscape:current-layer="svg4" />
  <path
     d="m 1,6 v 9 H 6 V 11 C 6,9.89543 6.89543,9 8,9 c 1.10457,0 2,0.89543 2,2 v 4 h 5 V 6 L 8,0 Z"
     fill="#000000"
     id="path2"
     style="fill:#000000" />
  <path
     id="path2-3"
     style="fill:#ffffff"
     d="M 5.1289062,4.3007812 C 4.1963096,5.1107253 3.2573244,5.9177454 2.3222656,6.7265625 c 0,2.3164063 0,4.6328125 0,6.9492185 0.7506511,0 1.5013021,0 2.2519532,0 C 4.4878561,11.743704 4.5447258,9.4190211 6.2011719,8.1132812 8.3898473,6.785485 11.6809,8.8649958 11.298828,11.431641 c 0.0072,0.733724 0.01432,1.467448 0.02148,2.201171 0.735678,0.0052 1.471355,0.01042 2.207032,0.01563 0.04394,-2.291468 0.04043,-4.5838123 -0.01758,-6.8750005 C 11.693263,5.0803761 9.8048865,3.4664115 7.875,1.9042969 6.9596354,2.703125 6.0442708,3.5019531 5.1289062,4.3007812 Z" />
  <path
     id="path972"
     style="fill:#55d400;stroke-width:0.25624"
     d="m 7.9023438,2.0996094 c -1.8840007,1.4933831 -3.6440197,3.1317933 -5.4785157,4.6875 0,2.2630208 0,4.5260416 0,6.7890626 0.6848959,0 1.3697917,0 2.0546875,0 -0.1029345,-1.914899 0.00699,-4.2285816 1.653227,-5.5017777 2.0837659,-1.3453956 5.2743194,0.4473614 5.2810724,2.9160147 0.05938,0.832919 -0.02717,1.670525 0.0657,2.501779 0.643151,0.01491 1.28638,0.02465 1.929687,0.0293 0,-2.233073 0,-4.4661455 0,-6.6992184 C 11.610295,5.2068777 9.7860414,3.5861984 7.9023438,2.0996094 Z" />
</svg>
